<svg width="253" height="91" viewBox="0 0 253 91" fill="none" xmlns="http://www.w3.org/2000/svg">
<g id="GE_logo_horizontal_fiix">
<path id="Vector" d="M135.786 49.0076C128.296 49.0076 122.208 55.4254 122.208 63.3127C122.208 71.0987 128.362 77.432 135.926 77.432C138.625 77.432 141.177 76.6045 143.301 75.0338C145.517 73.4801 147.338 71.124 148.569 68.2275C148.601 68.1599 148.593 68.0755 148.552 68.0079C148.511 67.9403 148.437 67.9066 148.363 67.9066H140.561C140.496 67.9066 140.43 67.9403 140.389 67.9909C139.29 69.4097 138.116 70.364 135.926 70.364C133.005 70.364 130.741 68.5653 130.224 65.863H149.053C149.159 65.863 149.258 65.7785 149.274 65.6688L149.315 65.4239C149.397 64.9087 149.463 64.4696 149.463 63.5492C149.463 59.5971 148.085 55.9322 145.582 53.2383C143.055 50.5107 139.577 49.0076 135.786 49.0076ZM130.331 60.1037C131.143 56.9285 134.146 56.0758 135.836 56.0758C137.526 56.0758 140.528 56.9371 141.341 60.1037H130.331Z" fill="#C8102E"/>
<path id="Vector_2" d="M179.072 49.9027H171.45C171.327 49.9027 171.229 50.0042 171.229 50.1308V52.301C170.384 51.1272 168.25 48.9993 163.927 48.9993C160.456 48.9993 157.224 50.3588 154.82 52.8331C152.252 55.4762 150.898 59.0651 150.898 63.2115C150.898 67.0623 152.113 70.6003 154.328 73.193C156.715 75.9882 160.038 77.4659 163.927 77.4659C167.701 77.4659 170.105 75.8529 171.229 74.1726V76.3428C171.229 76.4694 171.327 76.5707 171.45 76.5707H179.072C179.195 76.5707 179.293 76.4694 179.293 76.3428V50.1308C179.293 50.0042 179.195 49.9027 179.072 49.9027ZM171.229 63.2198C171.229 65.8208 169.588 69.6969 165.075 69.6969C160.456 69.6969 158.963 65.3986 158.963 63.3128C158.963 60.7878 160.612 56.785 165.026 56.785C169.095 56.785 171.229 60.0194 171.229 63.2198Z" fill="#C8102E"/>
<path id="Vector_3" d="M208.722 49.9025H201.101C200.977 49.9025 200.879 50.004 200.879 50.1306V51.9969C199.484 50.1474 196.957 49.0581 193.987 49.0581C190.55 49.0581 187.334 50.3923 184.93 52.8243C182.304 55.476 180.918 59.1409 180.918 63.4139C180.918 67.4336 182.304 71.0646 184.807 73.6319C187.211 76.0893 190.476 77.4404 193.987 77.4404C198.057 77.4404 200.067 75.2533 200.83 74.1301V74.282C200.83 80.5142 196.654 81.1897 194.857 81.1897C193.659 81.1897 191.518 80.8688 190.607 78.7323C190.574 78.648 190.492 78.5973 190.402 78.5973H181.591C181.525 78.5973 181.468 78.6226 181.427 78.6733C181.386 78.7239 181.361 78.7916 181.378 78.8589C181.681 81.1307 182.887 83.3685 184.676 85.0068C187.047 87.177 190.287 88.2749 194.316 88.2749C197.286 88.2749 200.108 87.6245 202.479 86.4C204.612 85.3024 206.359 83.7316 207.401 81.975C208.689 79.6613 208.944 77.0096 208.944 73.2181V50.1643C208.952 50.004 208.845 49.9025 208.722 49.9025ZM200.879 63.3632C200.879 67.0704 198.401 69.6545 194.857 69.6545C191.034 69.6545 188.975 66.2935 188.975 63.1267C188.975 59.597 191.575 56.8355 194.906 56.8355C198.426 56.8355 200.879 59.521 200.879 63.3632Z" fill="#C8102E"/>
<path id="Vector_4" d="M219.24 37.8945H211.617C211.494 37.8945 211.396 37.9958 211.396 38.1225V76.3511C211.396 76.4779 211.494 76.5792 211.617 76.5792H219.24C219.361 76.5792 219.46 76.4779 219.46 76.3511V38.1225C219.46 37.9958 219.361 37.8945 219.24 37.8945Z" fill="#C8102E"/>
<path id="Vector_5" d="M244.575 53.2383C242.04 50.5107 238.561 49.0076 234.78 49.0076C227.288 49.0076 221.201 55.4254 221.201 63.3127C221.201 71.0987 227.354 77.432 234.919 77.432C237.618 77.432 240.169 76.6045 242.293 75.0338C244.508 73.4801 246.33 71.124 247.56 68.2275C247.594 68.1599 247.586 68.0755 247.545 68.0079C247.502 67.9403 247.43 67.9066 247.355 67.9066H239.553C239.487 67.9066 239.423 67.9403 239.382 67.9909C238.283 69.4097 237.109 70.364 234.919 70.364C231.997 70.364 229.732 68.5653 229.217 65.863H248.046C248.15 65.863 248.249 65.7785 248.266 65.6688L248.298 65.4322C248.381 64.9171 248.448 64.478 248.448 63.5576C248.454 59.5971 247.077 55.9322 244.575 53.2383ZM240.325 60.1037H229.322C230.134 56.9285 233.137 56.0758 234.829 56.0758C236.518 56.0758 239.521 56.9371 240.325 60.1037Z" fill="#C8102E"/>
<path id="Vector_6" d="M28.5723 73.2011V50.1221C28.5723 50.0038 28.482 49.9111 28.3672 49.9111H20.7783C20.6635 49.9111 20.5732 50.0038 20.5732 50.1221V52.039C19.1949 50.1643 16.668 49.0581 13.6981 49.0581C10.2769 49.0581 7.0773 50.3923 4.68987 52.8243C2.08094 55.476 0.702637 59.1409 0.702637 63.4223C0.702637 67.442 2.08094 71.0732 4.57503 73.6403C6.96245 76.0976 10.2113 77.4488 13.7063 77.4488C17.8084 77.4488 19.802 75.2026 20.5404 74.0964V74.3074C20.5404 80.5649 16.3727 81.2404 14.576 81.2404C13.3781 81.2404 11.2368 80.9195 10.3344 78.7662C10.3016 78.6903 10.2277 78.6394 10.1457 78.6394H1.35897C1.30154 78.6394 1.24411 78.6649 1.20309 78.7156C1.16207 78.7576 1.14567 78.8253 1.15387 78.8843C1.45742 81.156 2.65524 83.3938 4.42735 85.0235C6.78195 87.194 10.0062 88.2916 14.0099 88.2916C16.9634 88.2916 19.7692 87.6415 22.1319 86.4086C24.2488 85.3107 25.9879 83.74 27.0299 81.9836C28.318 79.6529 28.5723 77.0013 28.5723 73.2011ZM20.5732 63.3632C20.5732 67.0788 18.1038 69.6798 14.5677 69.6798C10.7528 69.6798 8.69354 66.302 8.69354 63.1267C8.69354 59.5884 11.2943 56.8101 14.6088 56.8101C18.1202 56.8101 20.5732 59.5041 20.5732 63.3632Z" fill="#C8102E"/>
<path id="Vector_7" d="M32.1001 47.5382H39.6889C39.8038 47.5382 39.894 47.4453 39.894 47.3272V41.3653C39.894 41.247 39.8038 41.1541 39.6889 41.1541H32.1001C31.9853 41.1541 31.895 41.247 31.895 41.3653V47.3272C31.895 47.4453 31.9853 47.5382 32.1001 47.5382Z" fill="#C8102E"/>
<path id="Vector_8" d="M32.1001 76.5875H39.6889C39.8038 76.5875 39.894 76.4946 39.894 76.3763V50.1221C39.894 50.0038 39.8038 49.9111 39.6889 49.9111H32.1001C31.9853 49.9111 31.895 50.0038 31.895 50.1221V76.3763C31.895 76.4946 31.9853 76.5875 32.1001 76.5875Z" fill="#C8102E"/>
<path id="Vector_9" d="M55.0715 77.4825C58.8618 77.4825 61.2575 75.8444 62.3568 74.1471V76.3763C62.3568 76.4946 62.447 76.5875 62.5621 76.5875H70.1428C70.2576 76.5875 70.3479 76.4946 70.3479 76.3763V50.1221C70.3479 50.0038 70.2576 49.9111 70.1428 49.9111H62.5621C62.447 49.9111 62.3568 50.0038 62.3568 50.1221V52.3515C61.5364 51.1863 59.4279 49.0159 55.0715 49.0159C51.6175 49.0159 48.4016 50.3756 46.014 52.8497C43.4626 55.493 42.1172 59.0819 42.1172 63.2281C42.1172 67.0789 43.3313 70.6255 45.5301 73.2181C47.901 76.0048 51.2073 77.4825 55.0715 77.4825ZM50.1162 63.321C50.1162 60.7876 51.757 56.7681 56.1709 56.7681C60.232 56.7681 62.3651 60.0192 62.3651 63.2281C62.3651 65.846 60.7243 69.7305 56.2201 69.7305C51.6094 69.7305 50.1162 65.4068 50.1162 63.321Z" fill="#C8102E"/>
<path id="Vector_10" d="M97.4307 76.3764V59.9603C97.4307 54.6907 95.831 52.5796 94.4362 51.3297C92.9349 49.9872 90.1535 49.0076 87.8153 49.0076C83.6067 49.0076 81.8592 51.0765 81.0305 52.3347V50.1138C81.0305 49.9955 80.9402 49.9026 80.8254 49.9026H73.7451C73.6303 49.9026 73.54 49.9955 73.54 50.1138V76.368C73.54 76.4863 73.6303 76.5792 73.7451 76.5792H81.3258C81.4407 76.5792 81.5309 76.4863 81.5309 76.368V62.0882C81.5309 60.5091 81.5309 56.8103 85.666 56.8103C89.4399 56.8103 89.4399 60.2136 89.4399 62.0375V76.368C89.4399 76.4863 89.5301 76.5792 89.645 76.5792H97.2338C97.3405 76.5876 97.4307 76.4946 97.4307 76.3764Z" fill="#C8102E"/>
<path id="Vector_11" d="M98.439 56.2952H102.549V76.3765C102.549 76.4947 102.64 76.5877 102.754 76.5877H110.335C110.45 76.5877 110.54 76.4947 110.54 76.3765V56.2952H115.126C115.241 56.2952 115.332 56.2025 115.332 56.0842V50.1222C115.332 50.004 115.241 49.9113 115.126 49.9113H110.54V41.3653C110.54 41.247 110.45 41.1541 110.335 41.1541H102.754C102.64 41.1541 102.549 41.247 102.549 41.3653V49.9027H98.439C98.3241 49.9027 98.2339 49.9956 98.2339 50.1139V56.0756C98.2339 56.1939 98.3241 56.2952 98.439 56.2952Z" fill="#C8102E"/>
<path id="Vector_12" d="M108.03 27.7946H60.3798C60.0845 27.7946 59.8467 27.5497 59.8467 27.2458C59.8467 26.9417 60.0845 26.6968 60.3798 26.6968H108.022C108.317 26.6968 108.555 26.9417 108.555 27.2458C108.563 27.5497 108.325 27.7946 108.03 27.7946Z" fill="#77787B"/>
<path id="Vector_13" d="M195.692 27.7946H148.05C147.755 27.7946 147.517 27.5497 147.517 27.2458C147.517 26.9417 147.755 26.6968 148.05 26.6968H195.692C195.988 26.6968 196.225 26.9417 196.225 27.2458C196.225 27.5497 195.988 27.7946 195.692 27.7946Z" fill="#77787B"/>
<path id="Vector_14" d="M128.615 19.6203C130.469 23.5386 130.936 28.0565 130.009 33.0894L148.682 0.197754C148.682 0.197754 131.675 5.8894 128.615 19.6203Z" fill="#B5CC2D"/>
<path id="Vector_15" d="M106.799 7.35034C106.799 7.35034 106.406 34.2379 128.376 33.0473L106.799 7.35034Z" fill="#B5CC2D"/>
<path id="Vector_16" d="M106.8 7.35034C106.8 7.35034 132.701 10.838 128.377 33.0473L106.8 7.35034Z" fill="#79AD36"/>
<path id="Vector_17" d="M148.682 0.197754C148.682 0.197754 154.474 29.7539 130.009 33.081L148.682 0.197754Z" fill="#79AD36"/>
<path id="Vector_18" d="M251.94 64.4188C251.94 65.2295 251.3 65.8796 250.53 65.8796C249.735 65.8796 249.11 65.2211 249.11 64.4188C249.11 63.6251 249.735 62.9578 250.53 62.9578C251.309 62.9578 251.94 63.6165 251.94 64.4188ZM249.397 64.4188C249.397 65.0606 249.889 65.5927 250.522 65.5927C251.144 65.5927 251.645 65.0689 251.645 64.4188C251.645 63.7854 251.161 63.2449 250.522 63.2449C249.882 63.2449 249.397 63.7854 249.397 64.4188ZM250.595 63.5997C250.693 63.5997 251.17 63.5997 251.17 64.0556C251.17 64.2415 251.086 64.4104 250.866 64.4611V64.4695C251.086 64.5371 251.129 64.6721 251.138 64.8833C251.153 65.1619 251.153 65.2042 251.187 65.2718H250.907C250.875 65.2211 250.866 65.1702 250.858 64.9593C250.849 64.6974 250.791 64.6214 250.513 64.5961H250.186V65.2632H249.906V63.5912H250.595V63.5997ZM250.193 64.3342H250.53C250.644 64.3342 250.89 64.3342 250.89 64.064C250.875 63.8867 250.701 63.87 250.562 63.87H250.193V64.3342Z" fill="#C8102E"/>
</g>
</svg>
